HIERARCHY
ROOT hip
{
  OFFSET 0 0 0
  CHANNELS 6 Xposition Yposition Zposition Zrotation Yrotation Xrotation
  JOINT abdomen
  {
    OFFSET 0 20.6881 -0.73152
    CHANNELS 3 Zrotation Xrotation Yrotation
    JOINT chest
    {
      OFFSET 0 11.7043 -0.48768
      CHANNELS 3 Zrotation Xrotation Yrotation
      JOINT neck
      {
        OFFSET 0 22.1894 -2.19456
        CHANNELS 3 Zrotation Xrotation Yrotation
        JOINT head
        {
          OFFSET -0.24384 7.07133 1.2192
          CHANNELS 3 Zrotation Xrotation Yrotation
          JOINT leftEye
          {
            OFFSET 4.14528 8.04674 8.04672
            CHANNELS 3 Zrotation Xrotation Yrotation
            End Site
            {
              OFFSET 1 0 0
            }
          }
          JOINT rightEye
          {
            OFFSET -3.6576 8.04674 8.04672
            CHANNELS 3 Zrotation Xrotation Yrotation
            End Site
            {
              OFFSET 1 0 0
            }
          }
        }
      }
      JOINT rCollar
      {
        OFFSET -2.68224 19.2634 -4.8768
        CHANNELS 3 Zrotation Xrotation Yrotation
        JOINT rShldr
        {
          OFFSET -8.77824 -1.95073 1.46304
          CHANNELS 3 Zrotation Xrotation Yrotation
          JOINT rForeArm
          {
            OFFSET -28.1742 -1.7115 0.48768
            CHANNELS 3 Zrotation Xrotation Yrotation
            JOINT rHand
            {
              OFFSET -22.5879 0.773209 7.07136
              CHANNELS 3 Zrotation Xrotation Yrotation
              JOINT rThumb1
              {
                OFFSET -1.2192 -0.487915 3.41376
                CHANNELS 3 Zrotation Xrotation Yrotation
                JOINT rThumb2
                {
                  OFFSET -3.37035 -0.52449 3.41376
                  CHANNELS 3 Zrotation Xrotation Yrotation
                  End Site
                  {
                    OFFSET -1.78271 -1.18214 1.43049
                  }
                }
              }
              JOINT rIndex1
              {
                OFFSET -7.75947 0.938293 5.60832
                CHANNELS 3 Zrotation Xrotation Yrotation
                JOINT rIndex2
                {
                  OFFSET -2.54057 -0.884171 1.56538
                  CHANNELS 3 Zrotation Xrotation Yrotation
                  End Site
                  {
                    OFFSET -1.62519 -0.234802 1.16502
                  }
                }
              }
              JOINT rMid1
              {
                OFFSET -8.24714 1.18213 3.41376
                CHANNELS 3 Zrotation Xrotation Yrotation
                JOINT rMid2
                {
                  OFFSET -3.10165 -0.590103 1.0647
                  CHANNELS 3 Zrotation Xrotation Yrotation
                  End Site
                  {
                    OFFSET -2.48547 -0.328903 0.83742
                  }
                }
              }
              JOINT rRing1
              {
                OFFSET -8.82822 0.546677 1.51678
                CHANNELS 3 Zrotation Xrotation Yrotation
                JOINT rRing2
                {
                  OFFSET -2.60934 -0.819778 -0.0198488
                  CHANNELS 3 Zrotation Xrotation Yrotation
                  End Site
                  {
                    OFFSET -2.33842 -0.294052 0.168128
                  }
                }
              }
              JOINT rPinky1
              {
                OFFSET -8.27202 -0.0477905 -0.4584
                CHANNELS 3 Zrotation Xrotation Yrotation
                JOINT rPinky2
                {
                  OFFSET -1.82734 -0.647385 -0.700984
                  CHANNELS 3 Zrotation Xrotation Yrotation
                  End Site
                  {
                    OFFSET -1.69225 -0.51767 -0.607171
                  }
                }
              }
            }
          }
        }
      }
      JOINT lCollar
      {
        OFFSET 2.68224 19.2634 -4.8768
        CHANNELS 3 Zrotation Xrotation Yrotation
        JOINT lShldr
        {
          OFFSET 8.77824 -1.95073 1.46304
          CHANNELS 3 Zrotation Xrotation Yrotation
          JOINT lForeArm
          {
            OFFSET 28.1742 -1.7115 0.48768
            CHANNELS 3 Zrotation Xrotation Yrotation
            JOINT lHand
            {
              OFFSET 22.5879 0.773209 7.07136
              CHANNELS 3 Zrotation Xrotation Yrotation
              JOINT lThumb1
              {
                OFFSET 1.2192 -0.487915 3.41376
                CHANNELS 3 Zrotation Xrotation Yrotation
                JOINT lThumb2
                {
                  OFFSET 3.37035 -0.52449 3.41376
                  CHANNELS 3 Zrotation Xrotation Yrotation
                  End Site
                  {
                    OFFSET 1.78271 -1.18214 1.43049
                  }
                }
              }
              JOINT lIndex1
              {
                OFFSET 7.75947 0.938293 5.60832
                CHANNELS 3 Zrotation Xrotation Yrotation
                JOINT lIndex2
                {
                  OFFSET 2.54057 -0.884171 1.56538
                  CHANNELS 3 Zrotation Xrotation Yrotation
                  End Site
                  {
                    OFFSET 1.62519 -0.234802 1.16502
                  }
                }
              }
              JOINT lMid1
              {
                OFFSET 8.24714 1.18213 3.41376
                CHANNELS 3 Zrotation Xrotation Yrotation
                JOINT lMid2
                {
                  OFFSET 3.10165 -0.590103 1.0647
                  CHANNELS 3 Zrotation Xrotation Yrotation
                  End Site
                  {
                    OFFSET 2.48547 -0.328903 0.83742
                  }
                }
              }
              JOINT lRing1
              {
                OFFSET 8.82822 0.546677 1.51678
                CHANNELS 3 Zrotation Xrotation Yrotation
                JOINT lRing2
                {
                  OFFSET 2.60934 -0.819778 -0.0198488
                  CHANNELS 3 Zrotation Xrotation Yrotation
                  End Site
                  {
                    OFFSET 2.33842 -0.294052 0.168128
                  }
                }
              }
              JOINT lPinky1
              {
                OFFSET 8.27202 -0.0477905 -0.4584
                CHANNELS 3 Zrotation Xrotation Yrotation
                JOINT lPinky2
                {
                  OFFSET 1.82734 -0.647385 -0.700984
                  CHANNELS 3 Zrotation Xrotation Yrotation
                  End Site
                  {
                    OFFSET 1.69225 -0.51767 -0.607171
                  }
                }
              }
            }
          }
        }
      }
    }
  }
  JOINT rButtock
  {
    OFFSET -8.77824 4.35084 1.2192
    CHANNELS 3 Zrotation Xrotation Yrotation
    JOINT rThigh
    {
      OFFSET 0 -1.70687 -2.19456
      CHANNELS 3 Zrotation Xrotation Yrotation
      JOINT rShin
      {
        OFFSET 0 -36.8199 0.73152
        CHANNELS 3 Zrotation Xrotation Yrotation
        JOINT rFoot
        {
          OFFSET 0.73152 -45.1104 -5.12064
          CHANNELS 3 Zrotation Xrotation Yrotation
          End Site
          {
            OFFSET -1.1221 -3.69964 12.103
          }
        }
      }
    }
  }
  JOINT lButtock
  {
    OFFSET 8.77824 4.35084 1.2192
    CHANNELS 3 Zrotation Xrotation Yrotation
    JOINT lThigh
    {
      OFFSET 0 -1.70687 -2.19456
      CHANNELS 3 Zrotation Xrotation Yrotation
      JOINT lShin
      {
        OFFSET 0 -36.8199 0.73152
        CHANNELS 3 Zrotation Xrotation Yrotation
        JOINT lFoot
        {
          OFFSET -0.73152 -45.1104 -5.12064
          CHANNELS 3 Zrotation Xrotation Yrotation
          End Site
          {
            OFFSET 1.1221 -3.69964 12.103
          }
        }
      }
    }
  }
}
MOTION
Frames:	9
Frame Time:	0.03333
0.0 0.0 0.0 0.0 0.0 0.0 0.0 0.0 0.0 0.0 0.0 0.0 0.0 0.0 0.0 0.0 0.0 0.0 0.0 0.0 0.0 0.0 0.0 0.0 0.0 0.0 0.0 0.0 0.0 0.0 0.0 0.0 0.0 0.0 0.0 0.0 0.0 0.0 0.0 0.0 0.0 0.0 0.0 0.0 0.0 0.0 0.0 0.0 0.0 0.0 0.0 0.0 0.0 0.0 0.0 0.0 0.0 0.0 0.0 0.0 0.0 0.0 0.0 0.0 0.0 0.0 0.0 0.0 0.0 0.0 0.0 0.0 0.0 0.0 0.0 0.0 0.0 0.0 0.0 0.0 0.0 0.0 0.0 0.0 0.0 0.0 0.0 0.0 0.0 0.0 0.0 0.0 0.0 0.0 0.0 0.0 0.0 0.0 0.0 0.0 0.0 0.0 0.0 0.0 0.0 0.0 0.0 0.0 0.0 0.0 0.0 0.0 0.0 0.0 0.0 0.0 0.0 0.0 0.0 0.0 0.0 0.0 0.0 0.0 0.0 0.0 0.0 0.0 0.0 0.0 0.0 0.0
-3.2687 58.3592 1.5755000000000001 5.621284 -23.711909 5.317725 -8.098016 7.231456 -131.498666 4.753504 7.098219 126.068597 -13.672132 21.758716 -47.940135 38.155281 -17.388558 14.716092 -0.002103 -0.0 0.002315 -0.002103 -0.0 0.002315 -159.220566 -48.724932 170.568032 -89.44889 -51.44776 -91.45478 -88.577457 -2.241603 -101.426838 22.696856 -40.986366 15.05075 11.110845 -11.091807 -0.63975 -0.833951 -3.588962 -7.163065 -2.686868 4.226574 1.583807 -66.010648 48.37054 50.490008 -158.521473 -0.191991 142.145899 7.903772 -13.993172 -0.929452 -145.119411 0.226827 -179.199106 -149.417486 -38.762954 -171.995472 -152.503456 38.523776 -147.796643 55.885728 82.39676 -19.114534 -0.162749 -0.990176 0.2176 -75.6594 22.517912 -12.637272 114.474636 -19.733519 -88.117379 164.688283 -19.311204 -153.085507 177.747088 -15.324433 -89.569402 152.912041 5.740447 -81.802418 152.104473 -18.556362 -121.368789 158.713542 -10.492449 -119.515697 -68.988383 -80.152459 -40.58344 129.272465 52.005225 -118.253602 145.120156 0.310165 179.22559 -11.93648 52.756255 2.719995 16.203962 -29.123579 15.472836 166.454213 71.699592 147.96383 179.981816 75.750443 0.014962 143.675966 2.003711 93.313213 83.442914 -9.209407 142.711435 15.031096 -14.927167 107.140509 -0.002587 -0.001817 -0.003881 22.847571 -17.840756 -63.4963 -78.296859 -6.127081 -104.893344 132.292065 46.705178 130.358342
-5.238700000000001 58.9676 2.5139 5.827347 -27.33305 5.663816 -11.138716 10.126851 48.234868 -4.844826 -11.713145 -54.054586 4.990465 32.098286 137.464245 -34.479892 41.36636 -161.252447 -0.004126 -0.0 0.000425 0.001461 -0.0 -0.00079 -159.221839 -48.264401 170.465779 84.272967 57.273404 -84.101484 -86.180795 4.345342 84.223931 23.501014 -42.440787 15.555746 71.83128 -48.263962 25.791274 -21.218329 -9.695867 -17.450546 -50.385563 40.827522 40.023925 -117.859968 40.973438 89.255215 2.100058 -6.305403 -1.081795 -129.290209 52.117624 118.498603 -145.11047 -0.669048 -178.91876 -150.281738 -35.130769 -173.025725 -0.289682 -0.753476 -0.26886 -79.59731 -54.60422 -79.22378 -4.260165 -46.00883 8.911215 -82.657713 17.522633 29.440851 -61.269052 38.271926 -41.031279 22.601344 -4.453799 -1.251296 6.581357 6.344617 -1.366724 5.089349 6.198008 -8.270155 36.372924 35.788877 -27.711419 -13.498273 -9.54952 2.788964 161.152467 -8.160649 -143.465765 163.326874 -4.879514 -142.976967 -0.001425 -0.060913 0.018715 6.176323 62.269971 -18.853262 -3.655492 10.395235 -3.322239 -46.827088 83.948928 9.480519 0.000791 -1.5e-05 -0.001017 -64.994404 -53.302763 -156.165323 -75.422008 1.362763 34.201041 92.678356 3.873537 -7.396496 -179.982077 75.749005 -0.015815 -146.020221 53.557586 140.042748 58.757404 -53.767846 -7.011395 -19.514163 -56.194432 -95.489317
-7.254099999999999 59.6453 3.3836999999999997 5.680983 -31.661462 5.94787 -6.556687 9.724249 -55.456316 10.118994 -5.09179 49.853957 7.259641 25.013572 98.055599 -43.57055 14.876062 -124.215116 -0.001215 -0.0 0.001836 0.004375 0.0 0.000627 3.26876 -26.755794 -5.242141 91.801097 -72.917143 32.359825 -22.424142 76.118426 90.071234 -7.121603 33.687153 2.488662 -173.770926 -11.439941 89.890587 -77.888556 6.738752 25.375413 -138.493267 4.896894 114.865818 -170.208806 -28.079254 118.130739 89.035406 -81.393049 59.760729 -169.176185 -22.152866 144.114478 -0.013446 -1.322946 -0.417249 -49.666771 77.897408 63.029111 -159.022451 63.053166 -150.98495 9.907984 24.901655 4.248221 143.475317 38.506858 -147.924826 -119.907091 1.932381 -150.740381 10.727668 45.307183 -91.56781 13.484972 -51.161446 13.615621 168.13635 -5.815371 -89.871078 -33.239541 -63.66978 -28.013806 -179.292806 -59.502362 -116.314873 102.951551 50.237718 -86.02651 0.0579 0.167786 -0.032602 13.36905 36.412312 -10.630695 72.350087 72.976342 -90.217263 60.318533 -82.156839 77.307005 152.200836 37.330194 147.582153 -10.380358 24.835414 -3.909227 -0.0 -0.00084 -0.001962 -62.617131 -52.387964 23.14849 71.954755 -9.200432 -56.830234 50.872166 -80.596833 -41.10545 -1.4e-05 0.000561 1.8e-05 18.491309 -10.985689 -0.0 -50.623894 44.757192 -19.289489 16.410211 57.51339 85.088431
-9.3515 60.3754 4.2543999999999995 5.330754 -36.110787 6.122671 -5.904769 10.080801 -55.000648 10.161386 -5.143184 49.129588 -13.848498 21.588475 -58.768262 42.449912 -9.915084 35.816868 0.004945 -0.0 -0.000529 -0.000652 -0.0 0.000658 -155.613681 -4.236421 161.991079 147.867623 25.499479 -159.056507 175.984466 5.383903 84.282614 163.022803 -26.708736 142.515623 51.059306 -41.204387 12.856395 -144.827792 -14.259033 122.354452 10.747567 -19.04787 -4.724848 88.01359 -60.467725 34.653299 -86.29545 60.960792 77.857193 -156.596239 13.392231 140.227447 -72.756255 -72.144673 -89.771533 13.899335 29.735819 -0.547747 -46.956466 -48.6705 -45.713714 -158.956167 54.276128 -149.054843 159.220095 -49.36198 -170.707506 70.887049 -16.927328 69.812391 58.006663 33.277088 77.180343 164.925244 -14.205674 -150.034765 -115.062087 -50.179161 -56.086112 116.273379 33.044398 -71.25559 166.822413 -43.973437 -122.062405 -7.037538 13.242543 6.887459 -0.047029 -0.138634 0.027242 129.272572 52.116142 -118.504548 73.165859 -72.141131 90.198735 -13.907575 29.735324 0.558455 145.542653 13.244384 142.150047 138.459206 -10.95325 134.620535 0.000259 6.9e-05 -0.000333 -56.176671 -56.114273 -180.0 -80.562503 -16.294229 -133.267046 -65.045296 2.864318 -167.933233 -0.002406 6.9e-05 -0.002406 16.183547 -10.602359 3.380795 -40.606186 53.585298 6.119913 -63.506545 -82.816615 25.06873
-11.4886 60.9935 5.0133 3.863781 -40.685047 6.712198 -6.636128 12.0893 1.124307 3.544254 -12.39972 -6.567254 -14.037758 27.036003 -90.98387 48.124384 13.074499 63.468053 -0.001741 0.0 -0.001837 -0.001741 0.0 -0.001837 -155.716828 -4.925353 162.135535 -47.075207 -33.714466 -33.415921 -178.031116 -13.626805 -124.680899 -9.226439 37.437905 2.914168 -121.364602 30.329573 71.957891 90.268801 -50.463582 49.860351 -0.326398 0.530253 0.186059 -9.549571 25.522759 8.228966 -0.218772 0.638527 0.123504 2.399984 2.449209 0.311912 -145.118153 0.185412 -179.186719 8.764299 -14.064241 -10.957552 1.13569 3.040299 1.044327 -8.750103 -23.947397 -10.074205 -0.118268 -0.714032 0.157939 123.781423 -50.577358 -128.446476 -5.883176 -5.738582 125.045701 148.867881 27.06028 -130.779978 -6.463864 -6.45259 0.634752 3.888954 3.020182 1.061719 140.761869 1.379617 -116.228152 -45.106103 -55.091729 -1.608415 -34.587123 -70.943934 -9.313677 -2.205979 2.411044 -0.458223 71.925731 72.974859 -89.771417 -5.186628 26.572806 0.912884 -13.632256 46.898634 -11.160129 8.286036 -21.604374 9.192658 -0.0 0.002235 0.00128 -46.493583 -55.867659 -41.597689 54.388209 59.91286 28.607211 -138.564135 -28.359154 135.515975 -179.968605 75.749211 -0.025831 -151.181799 56.492895 -127.772259 -83.688447 -21.605292 -152.600804 -132.136193 -54.204869 122.407684
-13.8832 61.1925 5.9376999999999995 0.281399 -45.691011 8.452686 -3.246285 13.84503 -0.0 3.620209 -12.508754 -4.564242 -7.818416 33.654829 -143.994748 32.816314 46.859874 113.049079 -0.000533 0.0 -0.00194 0.000322 0.0 0.003312 4.239527 -44.742776 -8.647324 -6.226577 80.02938 69.223348 -50.581131 -21.760595 13.461036 8.308451 -14.809182 4.35898 -160.052381 2.21317 88.87706 -0.251762 -47.564087 14.383707 37.217122 -57.917384 -0.642477 -171.371907 -35.894127 110.214782 -160.672711 -6.66823 143.244043 11.539572 -24.897034 -1.139619 -145.122026 1.975516 -179.748665 10.058538 -0.124411 -9.008189 -85.78342 -50.535399 -84.154945 16.732803 42.665383 7.215876 152.689206 11.677388 -158.229782 74.363316 -2.047255 26.661884 144.467541 -36.254194 59.949851 6.295453 -56.932667 12.194773 171.706459 -9.388339 -89.948361 -144.687535 -47.343222 -97.732189 8.36115 12.235585 -5.304683 -70.69707 -56.523322 -24.052612 160.993893 -7.65905 -143.392517 7.501207 26.111138 -6.445598 0.000527 -0.018329 0.006995 156.473381 -42.784791 -177.02754 86.171576 -50.467995 84.539975 79.927625 -53.462191 80.488293 -0.0021 0.000147 -0.0 -35.890489 -59.0335 -156.734352 -79.861474 -11.205954 -116.49978 -63.944324 17.276608 -173.234931 -0.0 -0.000936 -0.000181 16.362937 -21.258828 -67.259534 -92.999012 15.081471 170.989173 6.03569 -46.472083 -83.346952
-16.6508 61.2695 7.2623 -4.823088 -50.97579 11.369257 2.925213 12.691248 -115.627813 8.063957 4.922933 110.7397 1.179432 14.973366 33.905579 -21.45609 -29.137284 -51.104115 0.000369 -0.0 -0.002718 -0.004554 -0.0 0.003457 -155.613777 -4.236545 161.990683 80.142263 61.417125 -103.496269 151.663188 -67.693954 64.621698 164.09621 -23.854995 143.38348 2.012167 -1.996824 -0.274116 6.582209 -10.072554 -6.743201 88.79284 -75.498112 40.050524 8.128718 14.2837 -3.165886 -160.671347 -6.668562 143.243671 -6.03203 23.204341 5.439033 -0.000503 0.022782 0.006234 -134.530886 -83.262687 -156.724862 -16.663388 -29.658725 -15.92078 3.052712 -0.024382 -0.167108 155.417265 -2.951255 -161.719078 74.006361 2.505298 53.705927 -9.30956 50.379136 143.37024 160.757836 18.053695 -136.787289 174.192772 -11.857499 -89.871209 69.175563 2.140727 -19.440549 -112.658464 -76.286011 -61.488779 158.856984 -19.595978 -116.202047 0.338523 0.982138 -0.189198 25.199468 49.214506 -20.687349 69.298731 72.94431 -87.018663 -5.14159 26.929801 0.789921 85.782253 -50.535243 84.155335 147.150413 13.912267 143.171612 0.000575 -0.000566 -0.00074 -25.5411 -56.625439 16.592801 66.464204 32.888362 -133.488357 105.76898 8.314005 -11.864661 -0.0 1.3e-05 0.000841 15.210987 -30.663769 76.695496 107.112262 32.690356 159.64699 -30.379468 69.263522 121.04025
-19.7459 61.2653 8.9697 -9.046263 -56.678642 14.320281 2.224067 17.755258 -0.0 3.252351 -12.8915 -2.734014 1.308594 14.620324 34.241906 -20.082591 -29.815984 -45.319266 -0.001072 -0.0 0.002979 0.003907 -0.0 -0.003153 -0.165268 0.979156 0.21919 111.880093 -36.689901 64.279557 161.518342 -69.309524 75.099278 161.700117 -28.461441 142.072339 -7.758706 7.439148 1.681191 -29.261405 21.133906 29.468978 -146.662151 -8.598288 119.301709 -88.302069 56.448957 68.925492 5.156359 -15.97542 -2.314881 -162.216069 -1.376654 142.954597 -145.12013 0.309839 -179.226254 -154.428607 71.870348 169.600774 -156.38592 53.734157 -150.115677 -26.106174 -40.311834 -26.62295 151.981472 14.72772 -157.381728 83.339932 3.280142 46.321837 -19.051866 55.025947 156.943093 163.309809 18.932466 -137.131762 0.441273 0.435423 -0.069294 136.791877 -39.2677 -118.334582 27.422372 30.638562 -20.099612 1.079902 12.468984 -1.33617 0.057279 0.167939 -0.032067 34.366142 55.163353 -28.968876 74.841006 72.960269 -92.828255 155.918762 -47.425516 175.627153 87.576896 -50.20611 85.928824 75.413524 -53.818313 76.075399 2.9e-05 0.00078 -3.7e-05 -18.158461 -55.741417 42.465499 73.871705 2.003722 9.340567 -15.282106 9.142344 -115.657859 179.998672 75.748862 0.001093 -165.094113 32.00865 0.0 154.689755 70.421897 -82.454921 46.126437 -67.529516 -46.336676
